<!--?xml version="1.0" encoding="utf-8"?-->
<!-- Generator: Adobe Illustrator 15.1.0, SVG Export Plug-In . SVG Version: 6.00 Build 0)  -->

<svg version="1.1" id="_x32_" xmlns="http://www.w3.org/2000/svg" xmlns:xlink="http://www.w3.org/1999/xlink" x="0px" y="0px" width="512px" height="512px" viewBox="0 0 512 512" style="width: 256px; height: 256px; opacity: 1;" xml:space="preserve">
<style type="text/css">

	.st0{fill:#4B4B4B;}

</style>
<g>
	<path class="st0" d="M346.281,36.463c-24.781-24.297-66.063-19.906-88.219-15.234l9.531,22.828
		c2.563,6.125-0.313,13.141-6.438,15.703c-6.094,2.547-13.125-0.328-15.688-6.438L223.344,0.385
		c-68.281-5.047-75.969,41.969-75.969,41.969l35.25,82.516H331.25C331.25,124.869,351.938,53.4,346.281,36.463z" style="fill: rgb(75, 161, 255);"></path>
	<path class="st0" d="M425.469,195.807l-35.375-19.031l-26.531,22.047l46.719,25.156c7.781,4.188,17.5,1.281,21.688-6.5
		S433.25,199.994,425.469,195.807z" style="fill: rgb(75, 161, 255);"></path>
	<path class="st0" d="M346.313,181.947H179.266c-8.828,0-16-7.156-16-16c0-8.828,7.172-16,16-16H334.75l66.219-55.031
		c6.813-5.656,16.906-4.719,22.531,2.078c5.656,6.797,4.719,16.891-2.063,22.531L346.313,181.947z" style="fill: rgb(75, 161, 255);"></path>
	<path class="st0" d="M414,431.104c0-9.406-9.406-74.453-13.156-121.484c-3.156-39.406-24.469-77.109-60.188-99.688H171.344
		c-35.734,22.578-57.031,60.281-60.188,99.688c-3.75,47.031-13.172,112.078-13.172,121.484s-28.203,30.094-28.203,47.031
		c0,16.922,15.031,33.859,48.906,33.859c33.844,0,135.438,0,135.438,0h3.75c0,0,101.594,0,135.438,0
		c33.875,0,48.906-16.938,48.906-33.859C442.219,461.197,414,440.51,414,431.104z M312.313,316.979l-4.188-1.75
		c-6.891-2.922-14.047-4.375-21.281-4.375c-20.938,0-40.156,12.141-49.406,30.719h69.828l-4.297,20.859h-71.188
		c-0.094,1.172-0.141,2.391-0.141,3.594c0,2.984,0.266,6.016,0.766,9.063h67.969l-4.281,20.844h-55.563
		c10.125,15.75,27.375,25.297,46.313,25.297c6.422,0,12.844-1.172,19.125-3.516l5-1.875v29.344l-2.75,0.734
		c-7.031,1.891-14.219,2.859-21.375,2.859c-34.078,0-64.734-21.125-77.063-52.844h-17.625v-20.844h12.5
		c-0.375-3.203-0.563-6.172-0.563-9.063c0-1.188,0.031-2.422,0.078-3.594h-12.016v-20.859h15.719
		c10.688-34.453,42.75-58.297,78.969-58.297c9.609,0,19.063,1.703,28.094,5l3,1.109L312.313,316.979z" style="fill: rgb(75, 161, 255);"></path>
</g>
</svg>
